<?xml version="1.0" standalone="no"?>
<!DOCTYPE svg PUBLIC "-//W3C//DTD SVG 20010904//EN"
 "http://www.w3.org/TR/2001/REC-SVG-20010904/DTD/svg10.dtd">
<svg version="1.0" xmlns="http://www.w3.org/2000/svg"
 width="100.000000pt" height="100.000000pt" viewBox="0 0 100.000000 100.000000"
 preserveAspectRatio="xMidYMid meet">
<metadata>
Created by potrace 1.11, written by Peter Selinger 2001-2013
</metadata>
<g transform="translate(0.000000,100.000000) scale(0.100000,-0.100000)"
fill="#000000" stroke="none">
<path d="M373 973 c-9 -3 -10 -10 -3 -23 17 -32 2 -34 -185 -27 -50 2 -60 -1
-63 -15 -2 -10 10 -30 26 -45 46 -44 46 -59 4 -76 -20 -8 -48 -27 -62 -43 -14
-15 -19 -24 -11 -19 32 19 -3 -17 -39 -40 -30 -19 -37 -29 -33 -45 3 -12 11
-19 19 -16 22 8 27 -14 8 -35 -9 -10 -13 -19 -9 -19 4 0 0 -8 -9 -19 -11 -12
-15 -28 -12 -46 7 -36 10 -39 52 -41 56 -3 65 -20 26 -50 -32 -26 -45 -72 -19
-75 6 -1 19 -3 27 -4 8 -1 25 -3 37 -4 18 -1 21 -7 20 -38 -2 -37 -1 -38 33
-38 27 0 44 -9 73 -38 27 -28 47 -39 77 -42 21 -2 53 -11 69 -20 17 -8 39 -15
49 -15 38 0 45 -25 23 -75 -12 -26 -18 -51 -15 -56 7 -12 534 -12 534 1 0 5
-5 31 -11 59 -10 46 -13 51 -52 64 -38 12 -49 12 -123 -9 -91 -25 -96 -23
-109 50 -6 32 -4 37 16 45 14 5 31 5 41 0 13 -7 23 0 45 32 36 52 114 135 132
141 15 4 24 84 11 108 -6 12 1 26 26 52 54 57 41 114 -26 120 -25 2 -34 7 -31
18 2 8 4 27 6 41 1 15 5 31 9 37 8 14 -10 25 -43 26 -18 1 -26 7 -27 21 -1 11
-2 26 -3 33 -1 7 -9 12 -18 11 -40 -4 -49 7 -31 36 3 6 9 25 13 43 8 41 -9 43
-64 7 -43 -29 -94 -46 -107 -36 -5 3 -21 20 -35 36 -25 29 -48 42 -50 28 -6
-57 -19 -69 -58 -53 -17 7 -31 16 -31 19 0 8 -66 42 -78 40 -4 0 -13 -3 -19
-6z"/>
</g>
</svg>
